HIERARCHY
ROOT Hips
{
 OFFSET 0.000000 0.000000 0.000000
 CHANNELS 6 Xposition Yposition Zposition Yrotation Xrotation Zrotation
 JOINT Chest
 {
  OFFSET 0.000000 9.585900 0.002600
  CHANNELS 3 Yrotation Xrotation Zrotation
  JOINT Chest2
  {
   OFFSET 0.000000 9.601200 -0.005300
   CHANNELS 3 Yrotation Xrotation Zrotation
   JOINT Chest3
   {
    OFFSET 0.000000 9.561800 0.000000
    CHANNELS 3 Yrotation Xrotation Zrotation
    JOINT Chest4
    {
     OFFSET 0.000000 9.552100 0.000000
     CHANNELS 3 Yrotation Xrotation Zrotation
     JOINT Neck
     {
      OFFSET 0.000000 14.453000 0.000000
      CHANNELS 3 Yrotation Xrotation Zrotation
      JOINT Head
      {
       OFFSET 0.000000 8.936500 -0.011300
       CHANNELS 3 Yrotation Xrotation Zrotation
       End Site
       {
        OFFSET 0.000000 17.073600 -0.006000
       }
      }
     }
     JOINT RightCollar
     {
      OFFSET -2.921100 9.558500 0.000000
      CHANNELS 3 Yrotation Xrotation Zrotation
      JOINT RightShoulder
      {
       OFFSET -13.519700 0.000000 0.000000
       CHANNELS 3 Yrotation Xrotation Zrotation
       JOINT RightElbow
       {
        OFFSET 0.000000 -29.696600 0.000000
        CHANNELS 3 Yrotation Xrotation Zrotation
        JOINT RightWrist
        {
         OFFSET 0.000000 -24.004700 0.000000
         CHANNELS 3 Yrotation Xrotation Zrotation
         End Site
         {
          OFFSET 0.000000 -17.728500 0.000000
         }
        }
       }
      }
     }
     JOINT LeftCollar
     {
      OFFSET 2.921100 9.558500 0.000000
      CHANNELS 3 Yrotation Xrotation Zrotation
      JOINT LeftShoulder
      {
       OFFSET 13.519700 0.000000 0.000000
       CHANNELS 3 Yrotation Xrotation Zrotation
       JOINT LeftElbow
       {
        OFFSET 0.000000 -29.696600 0.000000
        CHANNELS 3 Yrotation Xrotation Zrotation
        JOINT LeftWrist
        {
         OFFSET 0.000000 -24.004700 0.000000
         CHANNELS 3 Yrotation Xrotation Zrotation
         End Site
         {
          OFFSET 0.000000 -17.728500 0.000000
         }
        }
       }
      }
     }
    }
   }
  }
 }
 JOINT RightHip
 {
  OFFSET -7.771700 -0.012900 -0.001300
  CHANNELS 3 Yrotation Xrotation Zrotation
  JOINT RightKnee
  {
   OFFSET 0.000000 -40.869800 0.001200
   CHANNELS 3 Yrotation Xrotation Zrotation
   JOINT RightAnkle
   {
    OFFSET 0.000000 -39.717900 0.002100
    CHANNELS 3 Yrotation Xrotation Zrotation
    JOINT RightToe
    {
     OFFSET 0.000000 -4.965400 11.033500
     CHANNELS 3 Yrotation Xrotation Zrotation
     End Site
     {
      OFFSET 0.000000 -1.423100 5.872300
     }
    }
   }
  }
 }
 JOINT LeftHip
 {
  OFFSET 7.771700 -0.012900 -0.001300
  CHANNELS 3 Yrotation Xrotation Zrotation
  JOINT LeftKnee
  {
   OFFSET 0.000000 -40.869800 0.001200
   CHANNELS 3 Yrotation Xrotation Zrotation
   JOINT LeftAnkle
   {
    OFFSET 0.000000 -39.717900 0.002100
    CHANNELS 3 Yrotation Xrotation Zrotation
    JOINT LeftToe
    {
     OFFSET 0.000000 -4.965400 11.033500
     CHANNELS 3 Yrotation Xrotation Zrotation
     End Site
     {
      OFFSET 0.000000 -1.423100 5.872300
     }
    }
   }
  }
 }
}
MOTION
Frames: 8
Frame Time: 0.008333
-6.006907 52.875843 17.746669 -179.338206 -15.108220 -3.395967 -0.086013 14.982734 1.764698 -0.030130 1.404441 0.181143 -0.016770 2.322010 0.285084 0.001236 13.430520 1.692027 0.274562 16.664055 -3.688844 1.132154 -8.155018 -3.966476 1.573900 -0.421101 2.183629 2.457752 -12.556934 -7.772949 -85.311750 -54.214292 127.704711 -15.828154 -9.075515 -1.455697 -6.229795 -1.050540 0.742405 2.947322 -10.225414 9.268822 71.800717 -42.565995 -124.098384 10.019486 -4.568573 -1.259471 4.627967 -63.730610 9.891496 161.498801 86.408776 162.320675 -11.745024 -20.930203 8.286602 -0.000167 0.199043 -0.112350 0.552473 -62.205445 -0.345097 122.079202 77.232060 120.981107 -4.891962 -20.068167 -2.172533 -0.044197 0.050407 -0.009797
-5.999305 52.877174 17.742615 -179.342460 -15.100980 -3.390110 -0.076022 14.963714 1.757899 -0.025631 1.401116 0.177525 -0.014787 2.315861 0.282244 0.011100 13.422597 1.678670 0.263882 16.652210 -3.682449 1.122190 -8.156417 -3.952051 1.556260 -0.433257 2.178731 2.441305 -12.533934 -7.759658 -85.118493 -54.238171 127.535307 -15.848560 -9.088995 -1.436107 -6.245997 -1.060959 0.762760 2.973059 -10.199815 9.231840 71.703141 -42.529818 -124.009936 10.020794 -4.574821 -1.258798 4.544553 -63.716740 9.934922 161.053206 86.383151 161.778210 -11.438931 -21.041609 8.313624 0.017002 0.204737 -0.143460 0.555239 -62.211092 -0.331206 122.093682 77.238038 120.987570 -4.900440 -20.066937 -2.174502 -0.041705 0.050707 -0.008290
-5.992829 52.878968 17.736788 -179.337410 -15.106735 -3.381192 -0.080834 14.965513 1.746712 -0.016977 1.386728 0.172185 -0.015003 2.318201 0.280456 0.020781 13.409113 1.663502 0.253867 16.642555 -3.677700 1.110405 -8.167095 -3.944500 1.541542 -0.433826 2.181448 2.427502 -12.521280 -7.754137 -84.936514 -54.203365 127.389826 -15.863930 -9.084679 -1.429007 -6.258031 -1.108063 0.769978 2.977624 -10.129182 9.232310 71.652853 -42.502834 -123.961098 10.039365 -4.587110 -1.256409 4.457300 -63.701425 9.991459 160.973072 86.354196 161.619095 -11.271516 -21.104706 8.328476 0.078214 0.178455 -0.128849 0.560112 -62.202272 -0.333142 122.107215 77.245288 120.994957 -4.899655 -20.067052 -2.179974 -0.042898 0.051152 -0.006888
-5.986610 52.880162 17.733122 -179.327179 -15.101303 -3.374036 -0.080233 14.944274 1.731589 -0.016256 1.384519 0.170871 -0.024877 2.330993 0.287426 0.033522 13.384180 1.643595 0.245420 16.653123 -3.662176 1.096574 -8.205770 -3.954923 1.529584 -0.436595 2.174470 2.395122 -12.545640 -7.817277 -84.713684 -54.055725 127.218021 -15.896092 -9.065425 -1.417778 -6.265289 -1.115518 0.781421 3.000849 -10.105916 9.197226 71.580855 -42.482426 -123.904113 10.008660 -4.570603 -1.262050 4.391590 -63.688718 10.025436 160.776014 86.335652 161.362408 -11.214378 -21.198231 8.397447 0.047944 0.190331 -0.148633 0.564093 -62.205798 -0.345054 122.084773 77.247907 120.968555 -4.894990 -20.066579 -2.182914 -0.051773 0.055103 -0.009371
-5.981317 52.881293 17.729344 -179.312037 -15.098593 -3.365604 -0.087126 14.923571 1.713355 -0.005502 1.364324 0.162525 -0.033135 2.346254 0.292415 0.036038 13.377440 1.635527 0.239265 16.663329 -3.649355 1.091067 -8.208664 -3.951171 1.520145 -0.442515 2.156602 2.372829 -12.525011 -7.796090 -84.566558 -53.968762 127.116389 -15.934838 -9.039554 -1.399825 -6.273449 -1.103363 0.796800 3.026782 -10.098210 9.156615 71.533782 -42.448961 -123.868761 10.079506 -4.587544 -1.294046 4.366298 -63.679118 10.037129 160.766349 86.321948 161.332964 -11.364483 -21.274081 8.495077 0.032884 0.205578 -0.155050 0.569569 -62.206394 -0.366987 122.054307 77.255123 120.942320 -4.891137 -20.060947 -2.191980 -0.051994 0.056871 -0.009262
-5.977656 52.882351 17.725211 -179.301225 -15.100322 -3.349835 -0.091350 14.909799 1.691289 -0.008535 1.360880 0.160506 -0.021852 2.321553 0.281185 0.032197 13.392164 1.635364 0.230417 16.622767 -3.670275 1.088485 -8.160787 -3.914510 1.510054 -0.427086 2.163390 2.358621 -12.524151 -7.801240 -84.449130 -53.869727 127.041063 -15.976299 -9.004536 -1.376712 -6.279838 -1.091218 0.813162 3.051388 -10.083429 9.122975 71.530392 -42.426535 -123.877800 10.107356 -4.589790 -1.341403 4.355833 -63.676193 10.080520 161.445744 86.325408 162.037961 -11.874411 -21.303297 8.637993 0.018523 0.215998 -0.141134 0.569263 -62.203608 -0.383271 122.060970 77.256415 120.938185 -4.888466 -20.061046 -2.189732 -0.054738 0.058072 -0.014205
-5.974656 52.883390 17.720760 -179.301107 -15.106190 -3.330971 -0.091712 14.897657 1.666844 -0.005904 1.360857 0.158051 -0.021038 2.318963 0.279343 0.031884 13.398321 1.635919 0.225546 16.606040 -3.682019 1.082637 -8.172105 -3.910818 1.507209 -0.442640 2.132368 2.323353 -12.511547 -7.802810 -84.357226 -53.741799 126.994816 -16.017127 -8.961234 -1.345378 -6.289291 -1.110143 0.816568 3.094274 -10.051824 9.091926 71.509393 -42.432429 -123.885614 10.111844 -4.603933 -1.416461 4.329862 -63.670284 10.161288 162.342769 86.336351 162.958555 -12.491602 -21.318225 8.800103 0.001194 0.226448 -0.127620 0.591258 -62.199115 -0.411329 122.072990 77.255078 120.943664 -4.883417 -20.054439 -2.188110 -0.059227 0.049536 -0.019593
-5.974798 52.883089 17.720420 -179.269032 -15.085746 -3.304532 -0.123615 14.860798 1.625223 -0.009727 1.364684 0.158246 -0.022679 2.323707 0.282064 0.033788 13.393437 1.630225 0.221725 16.600137 -3.687055 1.071133 -8.209053 -3.935503 1.501011 -0.450896 2.110818 2.288690 -12.502325 -7.814078 -84.310227 -53.619603 126.987611 -16.037983 -8.917126 -1.323875 -6.288072 -1.124416 0.816130 3.139795 -10.025826 9.063645 71.573527 -42.412840 -123.959226 10.106320 -4.547717 -1.499957 4.319777 -63.691126 10.140366 162.551607 86.316098 163.151240 -12.756677 -21.340589 8.888122 0.003701 0.203175 -0.105327 0.620098 -62.218146 -0.481701 122.044751 77.246634 120.918276 -4.887908 -20.060251 -2.192023 -0.061912 0.054207 -0.023897
